<?xml version="1.0" standalone="no"?>
<!DOCTYPE svg PUBLIC "-//W3C//DTD SVG 20010904//EN"
 "http://www.w3.org/TR/2001/REC-SVG-20010904/DTD/svg10.dtd">
<svg version="1.0" xmlns="http://www.w3.org/2000/svg"
 width="180.000000pt" height="180.000000pt" viewBox="0 0 180.000000 180.000000"
 preserveAspectRatio="xMidYMid meet">
<metadata>
Created by potrace 1.14, written by Peter Selinger 2001-2017
</metadata>
<g transform="translate(0.000000,180.000000) scale(0.100000,-0.100000)"
fill="#000000" stroke="none">
<path d="M387 1372 c-68 -90 -93 -187 -76 -293 13 -81 48 -147 110 -208 62
-62 74 -64 63 -13 -5 20 -9 80 -8 132 0 107 15 151 78 233 34 45 36 51 36 122
l0 75 -83 0 -83 0 -37 -48z"/>
<path d="M875 1408 c-2 -7 -5 -57 -7 -110 -3 -95 -4 -98 -37 -132 -20 -21 -49
-38 -68 -42 -18 -3 -33 -11 -33 -17 0 -27 43 -94 70 -111 41 -24 115 -23 148
1 52 39 66 69 72 156 5 81 5 82 33 85 32 4 33 6 7 76 -35 91 -51 106 -121 106
-39 0 -61 -4 -64 -12z"/>
<path d="M1305 1393 c39 -101 51 -280 26 -383 -16 -67 -69 -183 -105 -230 -49
-65 -144 -155 -199 -188 -31 -18 -88 -45 -129 -59 -64 -23 -90 -27 -203 -27
-102 -1 -141 3 -182 17 -87 31 -97 18 -28 -36 311 -247 765 -146 943 209 84
166 87 379 8 549 -30 65 -105 165 -124 165 -9 0 -12 -6 -7 -17z"/>
</g>
</svg>
